<svg width="89" height="63" viewBox="0 0 89 63" fill="none" xmlns="http://www.w3.org/2000/svg">
<path d="M24.1529 29.0628C21.3738 29.0628 19.2166 28.0636 17.6815 26.0653H17.4036C17.5889 27.9181 17.6815 29.043 17.6815 29.44V38.4325H13.0165V6.71051H16.7882C16.8941 7.12076 17.1124 8.10008 17.4433 9.64847H17.6815C19.1372 7.42515 21.3209 6.31349 24.2323 6.31349C26.9718 6.31349 29.1025 7.30604 30.6244 9.29115C32.1595 11.2763 32.9271 14.062 32.9271 17.6484C32.9271 21.2349 32.1463 24.0339 30.5847 26.0454C29.0363 28.057 26.8924 29.0628 24.1529 29.0628ZM23.0214 10.1249C21.1687 10.1249 19.8122 10.6675 18.952 11.7527C18.105 12.8379 17.6815 14.5715 17.6815 16.9537V17.6484C17.6815 20.3217 18.105 22.2605 18.952 23.4648C19.7989 24.6559 21.1819 25.2514 23.1008 25.2514C24.7154 25.2514 25.9594 24.5897 26.8328 23.2663C27.7063 21.9429 28.143 20.057 28.143 17.6087C28.143 15.1472 27.7063 13.2878 26.8328 12.0306C25.9726 10.7601 24.7021 10.1249 23.0214 10.1249ZM52.0834 28.6658L51.1504 25.6087H50.9916C49.9329 26.9454 48.8675 27.8585 47.7956 28.3482C46.7236 28.8246 45.3473 29.0628 43.6665 29.0628C41.5094 29.0628 39.822 28.4805 38.6045 27.3159C37.4002 26.1513 36.7981 24.5037 36.7981 22.373C36.7981 20.11 37.6384 18.4028 39.3191 17.2514C40.9999 16.1001 43.5607 15.4714 47.0015 15.3656L50.7931 15.2465V14.0753C50.7931 12.6724 50.4622 11.627 49.8005 10.9388C49.152 10.2374 48.1396 9.88668 46.7633 9.88668C45.6384 9.88668 44.5598 10.0521 43.5276 10.383C42.4953 10.7138 41.5028 11.1042 40.5499 11.5542L39.0412 8.21919C40.2323 7.59719 41.5359 7.12738 42.9519 6.80976C44.3679 6.47891 45.7046 6.31349 46.9618 6.31349C49.7542 6.31349 51.8584 6.92225 53.2744 8.13979C54.7037 9.35732 55.4184 11.2696 55.4184 13.8767V28.6658H52.0834ZM45.1355 25.4896C46.8295 25.4896 48.186 25.0198 49.205 24.0802C50.2372 23.1273 50.7534 21.7973 50.7534 20.0901V18.1844L47.9345 18.3035C45.7377 18.3829 44.1363 18.7535 43.1306 19.4152C42.138 20.0637 41.6417 21.0628 41.6417 22.4127C41.6417 23.392 41.9329 24.153 42.5152 24.6956C43.0975 25.2249 43.9709 25.4896 45.1355 25.4896ZM58.5945 6.71051H63.6764L68.1429 19.1571C68.8178 20.9305 69.2678 22.598 69.4928 24.1596H69.6516C69.7707 23.4317 69.989 22.5517 70.3067 21.5194C70.6243 20.4739 72.305 15.5376 75.3488 6.71051H80.391L71.0015 31.5839C69.2943 36.1496 66.4489 38.4325 62.4655 38.4325C61.4332 38.4325 60.4275 38.32 59.4481 38.095V34.4027C60.1495 34.5616 60.9502 34.641 61.8501 34.641C64.0999 34.641 65.6814 33.3374 66.5945 30.7303L67.4084 28.6658L58.5945 6.71051Z" fill="#232F3E"/>
<path d="M77.5371 46.3014C40.1068 64.1151 16.8771 49.2109 2.007 40.1584C1.08685 39.5879 -0.477092 40.2918 0.87984 41.8504C5.8338 47.8572 22.069 62.3352 43.2606 62.3352C64.4668 62.3352 77.0825 50.7642 78.6607 48.7457C80.2282 46.7442 79.121 45.6402 77.5367 46.3014H77.5371ZM88.0493 40.4959C87.0442 39.187 81.9373 38.943 78.7233 39.3378C75.5044 39.7212 70.6728 41.6885 71.0928 42.8698C71.3084 43.3122 71.7484 43.1138 73.9596 42.9149C76.177 42.6937 82.3886 41.9098 83.683 43.6018C84.9833 45.3055 81.7018 53.4215 81.1025 54.7304C80.5234 56.0393 81.3237 56.3768 82.4114 55.5051C83.4841 54.6336 85.4262 52.3768 86.7294 49.1831C88.0237 45.972 88.813 41.4926 88.049 40.4959H88.0493Z" fill="#FF9900"/>
<path d="M77.5371 46.3014C40.1068 64.1151 16.8771 49.2109 2.007 40.1584C1.08685 39.5879 -0.477092 40.2918 0.87984 41.8504C5.8338 47.8572 22.069 62.3352 43.2606 62.3352C64.4668 62.3352 77.0825 50.7642 78.6607 48.7457C80.2282 46.7442 79.121 45.6402 77.5367 46.3014H77.5371ZM88.0493 40.4959C87.0442 39.187 81.9373 38.943 78.7233 39.3378C75.5044 39.7212 70.6728 41.6885 71.0928 42.8698C71.3084 43.3122 71.7484 43.1138 73.9596 42.9149C76.177 42.6937 82.3886 41.9098 83.683 43.6018C84.9833 45.3055 81.7018 53.4215 81.1025 54.7304C80.5234 56.0393 81.3237 56.3768 82.4114 55.5051C83.4841 54.6336 85.4262 52.3768 86.7294 49.1831C88.0237 45.972 88.813 41.4926 88.049 40.4959H88.0493Z" fill="#FF9900"/>
</svg>
