<svg width="640" height="180" viewBox="0 0 640 180" fill="none" xmlns="http://www.w3.org/2000/svg">
<g clip-path="url(#clip0_3_7)">
<mask id="mask0_3_7" style="mask-type:luminance" maskUnits="userSpaceOnUse" x="0" y="0" width="640" height="180">
<path d="M640 0H0V180H640V0Z" fill="white"/>
</mask>
<g mask="url(#mask0_3_7)">
<mask id="mask1_3_7" style="mask-type:luminance" maskUnits="userSpaceOnUse" x="0" y="0" width="180" height="180">
<path d="M180 0H0V180H180V0Z" fill="white"/>
</mask>
<g mask="url(#mask1_3_7)">
<path d="M162 104.263V79.276C162 65.0798 155.822 53.6874 145.069 48.0165L89.5316 18.7317L89.2531 19.2633L88.9747 19.7949C99.3228 25.2506 105.26 36.257 105.26 49.9912V74.9785C105.26 75.7317 105.241 76.5228 105.203 77.314C105.196 77.4659 105.184 77.6178 105.171 77.776L105.146 78.1494C105.114 78.6494 105.082 79.1558 105.032 79.6558C105.013 79.8583 104.987 80.0671 104.962 80.2697L104.905 80.7444C104.854 81.1621 104.81 81.5735 104.747 81.9912C104.715 82.2254 104.677 82.4532 104.639 82.6874L104.582 83.0482C104.513 83.4722 104.443 83.8963 104.361 84.3203C104.241 84.9532 104.114 85.5798 103.975 86.2064L103.93 86.3899C103.791 86.9975 103.639 87.5988 103.475 88.2001L103.329 88.7317C103.158 89.3393 102.981 89.9469 102.791 90.5545L102.62 91.0798C102.405 91.7444 102.177 92.4089 101.937 93.0671C101.873 93.2444 101.804 93.4153 101.734 93.5925L101.627 93.8773C101.43 94.3836 101.234 94.8963 101.025 95.4026C100.905 95.7001 100.772 95.9975 100.646 96.295L100.601 96.4026C100.437 96.7887 100.266 97.1748 100.089 97.5545C99.9367 97.8963 99.7721 98.2317 99.6139 98.5672C99.4304 98.9469 99.2531 99.3203 99.0633 99.6937C98.886 100.042 98.7088 100.384 98.5253 100.725C98.3481 101.061 98.1645 101.403 97.981 101.738C97.7911 102.08 97.5949 102.422 97.3987 102.763C97.2088 103.092 97.019 103.428 96.8164 103.751C96.6139 104.092 96.405 104.428 96.1899 104.763C95.9873 105.086 95.7911 105.403 95.5823 105.719C95.3671 106.054 95.1456 106.377 94.8924 106.757C94.6899 107.054 94.4873 107.352 94.2848 107.643C94.0696 107.947 93.8544 108.244 93.6013 108.592C93.3671 108.915 93.1329 109.232 92.8924 109.548C92.6582 109.858 92.424 110.156 92.1835 110.46C91.9367 110.77 91.6899 111.086 91.443 111.39C91.2278 111.656 91.0063 111.915 90.7848 112.175L90.7405 112.225C90.4493 112.573 90.1519 112.915 89.8481 113.257C89.6076 113.529 89.3671 113.795 89.1266 114.061C88.8228 114.396 88.519 114.719 88.2088 115.048C87.9747 115.295 87.7342 115.535 87.4936 115.782C87.0823 116.2 86.6645 116.605 86.2405 117.01L86.0569 117.187C85.905 117.333 85.7595 117.472 85.6076 117.618C85.0759 118.111 84.538 118.592 83.9873 119.067L83.8354 119.2C83.7785 119.251 83.7152 119.308 83.6582 119.359L83.3987 119.574C82.9493 119.954 82.4937 120.321 82.038 120.688C81.8987 120.802 81.7531 120.909 81.6076 121.023L81.5 121.105C81.1139 121.403 80.7278 121.694 80.3038 122.004C80.1266 122.131 79.9557 122.264 79.7785 122.39C79.3291 122.713 78.8797 123.023 78.424 123.327L78.0696 123.574C77.4747 123.966 76.8734 124.346 76.2658 124.713L75.8797 124.941C75.3987 125.226 74.9177 125.504 74.4304 125.776C74.2848 125.859 74.1392 125.935 73.9937 126.01L73.7658 126.131C73.3607 126.346 72.962 126.555 72.5569 126.764C72.3354 126.871 72.1139 126.979 71.8924 127.086L71.8164 127.124C71.424 127.314 71.038 127.492 70.6392 127.669C70.386 127.783 70.1329 127.897 69.8734 128.004C69.4747 128.175 69.0696 128.34 68.6709 128.498L68.4557 128.58C68.2785 128.65 68.1012 128.719 67.924 128.789C67.4873 128.954 67.0443 129.105 66.6012 129.257L66.3607 129.34C66.2278 129.384 66.0949 129.435 65.962 129.479C65.2595 129.707 64.6076 129.903 63.9747 130.08L60.0949 131.143C59.519 131.302 58.943 131.447 58.3734 131.58C58.2658 131.605 58.1645 131.624 58.0569 131.643L57.6266 131.732C57.3038 131.802 56.9873 131.871 56.6645 131.928C56.5316 131.954 56.3924 131.973 56.2595 131.998L55.7405 132.086C55.4873 132.131 55.2342 132.175 54.981 132.207C54.8354 132.226 54.6899 132.245 54.5443 132.257L54.019 132.321C53.7848 132.352 53.5506 132.378 53.3164 132.403C53.2215 132.409 53.1266 132.416 53.038 132.428L52.8228 132.447C52.4557 132.479 52.0886 132.511 51.7215 132.529C51.5823 132.536 51.4493 132.542 51.3101 132.542H51.1076C50.7848 132.561 50.4683 132.574 50.1519 132.574C50 132.574 49.8417 132.574 49.6899 132.574H49.5C49.2025 132.574 48.8987 132.567 48.6012 132.555C48.4367 132.555 48.2721 132.542 48.1076 132.53H47.943C47.6329 132.504 47.3291 132.485 47.019 132.46L46.6139 132.422C46.2278 132.384 45.8481 132.346 45.462 132.295L45.2152 132.264C44.7658 132.2 44.3164 132.131 43.8671 132.048L43.5316 131.985C43.2531 131.928 42.9747 131.871 42.6962 131.808C42.2595 131.713 41.8291 131.605 41.3987 131.485L41.2152 131.435C41.1329 131.416 41.057 131.39 40.9747 131.371C40.4051 131.207 39.8481 131.03 39.3228 130.846L38.9304 130.7C38.5443 130.561 38.1519 130.409 37.7721 130.251C37.6266 130.188 37.481 130.124 37.3354 130.061L37.2405 130.017C36.9051 129.871 36.5759 129.719 36.2468 129.561L36.0949 129.485C36.057 129.464 36.0274 129.449 36.0063 129.441L31.8734 127.276L34.8671 130.27H34.9684L90.3734 159.479C90.5633 159.58 90.7532 159.675 90.9494 159.776C91.0127 159.808 91.0759 159.833 91.1392 159.865L91.2595 159.922C91.6013 160.086 91.943 160.245 92.2975 160.397L92.3987 160.441C92.5506 160.504 92.6962 160.574 92.8481 160.637C93.2468 160.802 93.6456 160.954 94.0506 161.105L94.1835 161.156C94.2532 161.181 94.3165 161.207 94.3734 161.232L94.4557 161.257C95.0127 161.454 95.5949 161.637 96.1772 161.802C96.2658 161.827 96.3544 161.852 96.443 161.871L96.6139 161.916C97.057 162.036 97.5126 162.15 97.9683 162.251L98.0759 162.276C98.1329 162.289 98.1835 162.302 98.2405 162.314C98.3734 162.346 98.5127 162.371 98.6519 162.397L99.1899 162.498C99.6519 162.58 100.114 162.656 100.582 162.726L100.842 162.757C101.234 162.808 101.633 162.852 102.032 162.89L102.81 162.96C102.93 162.966 103.051 162.973 103.177 162.979L103.481 162.992C103.684 163.004 103.88 163.017 104.089 163.023C104.373 163.036 104.665 163.036 104.949 163.042H105.19C105.31 163.042 105.424 163.042 105.544 163.042C105.595 163.042 105.639 163.042 105.69 163.042C106 163.042 106.31 163.03 106.684 163.011H106.886C107.025 162.998 107.171 162.998 107.317 162.985C107.69 162.966 108.07 162.935 108.449 162.903L108.652 162.884C108.753 162.878 108.854 162.871 109.013 162.852C109.234 162.827 109.456 162.802 109.677 162.776L110.177 162.713C110.342 162.694 110.506 162.675 110.671 162.65C110.937 162.612 111.196 162.567 111.462 162.523L111.968 162.441C112.114 162.416 112.26 162.397 112.405 162.365C112.734 162.302 113.063 162.232 113.392 162.162L113.798 162.08C113.918 162.055 114.038 162.03 114.158 162.004C114.747 161.871 115.336 161.719 115.93 161.555L119.81 160.492C120.449 160.314 121.12 160.118 121.848 159.878C121.987 159.833 122.12 159.789 122.253 159.738L122.506 159.65C122.962 159.492 123.418 159.333 123.867 159.169C124.063 159.099 124.253 159.017 124.443 158.941L124.627 158.865C125.038 158.7 125.456 158.536 125.861 158.359C126.12 158.245 126.38 158.131 126.646 158.017C127.051 157.833 127.449 157.65 127.848 157.46L127.981 157.397C128.19 157.295 128.399 157.194 128.608 157.093C129.025 156.884 129.437 156.669 129.848 156.447L130.076 156.327C130.228 156.245 130.38 156.169 130.525 156.086C131.025 155.814 131.513 155.523 132.006 155.232L132.17 155.137C132.246 155.093 132.322 155.048 132.405 155.004C132.993 154.65 133.576 154.283 134.152 153.903L134.55 153.631L146.746 159.188C153.873 162.435 161.974 157.226 161.974 149.39V104.251C161.974 104.246 161.974 104.242 161.974 104.238L162 104.263Z" fill="#2ADB5C"/>
<path d="M89.5633 18.7443C89.3734 18.643 89.1835 18.5481 88.9937 18.4532C88.8924 18.4025 88.7848 18.3582 88.6835 18.3076C88.3418 18.143 88 17.9848 87.6582 17.8329C87.4747 17.7506 87.2975 17.6747 87.1076 17.5924C86.7152 17.4279 86.3165 17.276 85.9114 17.1304C85.8038 17.0924 85.6962 17.0418 85.5823 17.0038C85.557 16.9975 85.5317 16.9848 85.5063 16.9785C84.943 16.7823 84.3734 16.5987 83.7975 16.4342C83.6519 16.3899 83.5063 16.3582 83.3608 16.3203C82.9177 16.2 82.4684 16.0861 82.019 15.9911C81.924 15.9722 81.8354 15.9405 81.7468 15.9215C81.5506 15.8772 81.3544 15.8456 81.1582 15.8076C81.0443 15.7823 80.9241 15.7633 80.8101 15.738C80.3544 15.6557 79.8924 15.5798 79.424 15.5165C79.3354 15.5038 79.2468 15.4975 79.1582 15.4848C78.7658 15.4342 78.3797 15.3899 77.981 15.3519C77.8418 15.3393 77.7025 15.3266 77.5633 15.3139C77.443 15.3013 77.3228 15.2886 77.2025 15.2823C77.0063 15.2696 76.8101 15.2633 76.6139 15.2506C76.3861 15.238 76.1582 15.2253 75.9304 15.219C75.6266 15.2063 75.3164 15.2063 75.0063 15.2C74.7848 15.2 74.557 15.1937 74.3354 15.2C74.0127 15.2 73.6835 15.219 73.3544 15.2253C73.1456 15.2317 72.9304 15.238 72.7215 15.2506C72.3481 15.2696 71.9683 15.3013 71.5949 15.3329C71.424 15.3456 71.2532 15.3582 71.0823 15.3709C71.0633 15.3709 71.0443 15.3709 71.0316 15.3709C70.7278 15.4025 70.4177 15.4468 70.1076 15.4848C69.8608 15.5165 69.6203 15.5418 69.3734 15.5734C69.0253 15.6241 68.6772 15.6874 68.3291 15.7443C68.1013 15.7823 67.8734 15.8139 67.6456 15.8582C67.2532 15.9342 66.8544 16.0165 66.4557 16.1051C66.2658 16.143 66.0823 16.181 65.8924 16.2253C65.3038 16.3582 64.7152 16.5101 64.1266 16.6747L60.2468 17.738C59.5633 17.9279 58.8861 18.1304 58.2089 18.3519C57.9873 18.4215 57.7721 18.5038 57.5506 18.5798C57.0949 18.738 56.6392 18.8962 56.1899 19.0608C55.9367 19.1557 55.6835 19.257 55.424 19.3582C55.0126 19.5228 54.6013 19.6874 54.1899 19.8646C53.9304 19.9785 53.6645 20.0924 53.4051 20.2063C53 20.3899 52.6013 20.5734 52.2025 20.7633C51.9494 20.8835 51.6962 21.0038 51.443 21.1304C51.0253 21.3392 50.6139 21.5544 50.2025 21.776C49.9747 21.8962 49.7468 22.0165 49.5253 22.1367C49.0253 22.4089 48.538 22.7 48.0443 22.9911C47.9114 23.0671 47.7785 23.1431 47.6456 23.2253C47.0569 23.5798 46.4747 23.9532 45.8924 24.3329C45.8607 24.3519 45.8291 24.3772 45.7975 24.3962C45.6709 24.4785 45.5506 24.5671 45.4304 24.6494C44.962 24.9658 44.5 25.2823 44.0443 25.6114C43.8544 25.7506 43.6645 25.8899 43.4747 26.0228C43.0759 26.3203 42.6772 26.6177 42.2848 26.9215C42.1012 27.0608 41.9177 27.2063 41.7405 27.3456C41.2721 27.719 40.8038 28.0987 40.3418 28.4848C40.2531 28.5608 40.1645 28.6304 40.0759 28.7C40.0569 28.7127 40.038 28.7316 40.019 28.7443C39.924 28.8266 39.8354 28.9152 39.7405 28.9975C39.1835 29.4785 38.6266 29.9722 38.0886 30.4785C37.8671 30.681 37.6582 30.8899 37.4367 31.0987C37.0063 31.5101 36.5823 31.9278 36.1582 32.3519C36.0443 32.4658 35.9304 32.5734 35.8164 32.6873C35.6835 32.8203 35.5633 32.9658 35.4304 33.0987C35.1139 33.4342 34.7975 33.7696 34.4873 34.1114C34.2405 34.3835 33.9937 34.6557 33.7468 34.9278C33.4367 35.2759 33.1392 35.6304 32.8354 35.9785C32.6835 36.1557 32.5316 36.3266 32.3861 36.5038C32.2975 36.6114 32.2088 36.7253 32.1202 36.8329C31.8607 37.1494 31.6076 37.4658 31.3607 37.7886C31.1202 38.0987 30.8734 38.4089 30.6329 38.719C30.3861 39.0418 30.1456 39.3709 29.905 39.7C29.7531 39.9089 29.5949 40.1114 29.443 40.3266C29.3607 40.4405 29.2911 40.5544 29.2088 40.6684C28.9873 40.9848 28.7721 41.3076 28.5506 41.6241C28.3228 41.9595 28.0949 42.2949 27.8734 42.6367C27.6645 42.9595 27.4557 43.2886 27.2532 43.6177C27.1139 43.8329 26.9747 44.0481 26.8418 44.2696C26.7658 44.3962 26.6962 44.5291 26.6139 44.6557C26.4114 44.9911 26.2152 45.3266 26.0253 45.6684C25.8228 46.0165 25.6266 46.3646 25.4304 46.719C25.2405 47.0608 25.0569 47.4089 24.8734 47.7506C24.7595 47.9658 24.6329 48.181 24.5253 48.4025C24.4557 48.5354 24.3987 48.6684 24.3291 48.8013C24.1329 49.1873 23.9493 49.5734 23.7595 49.9595C23.5949 50.3013 23.4304 50.643 23.2721 50.9911C23.0949 51.3835 22.924 51.776 22.7532 52.1684C22.6519 52.4025 22.538 52.6367 22.443 52.8772C22.3987 52.9785 22.3607 53.0861 22.3164 53.1937C22.1013 53.7063 21.9051 54.2253 21.7025 54.7506C21.5949 55.0291 21.4873 55.3013 21.3861 55.5797C21.1392 56.2506 20.9114 56.9279 20.6899 57.6114C20.6519 57.7253 20.6076 57.8392 20.5696 57.9595C20.5696 57.9722 20.5633 57.9911 20.5569 58.0038C20.538 58.0544 20.5253 58.1114 20.5063 58.162C20.3101 58.7823 20.1329 59.4025 19.9557 60.0228C19.9051 60.2063 19.8544 60.3836 19.8101 60.5671C19.6456 61.181 19.4873 61.8013 19.3481 62.4215C19.3354 62.4848 19.3164 62.5481 19.3038 62.6114C19.1772 63.1557 19.0633 63.7 18.9557 64.2506C18.9367 64.3519 18.924 64.4468 18.905 64.5481C18.8164 65.0038 18.7468 65.4595 18.6709 65.9215C18.6139 66.257 18.5569 66.5987 18.5063 66.9342C18.4367 67.4152 18.3861 67.8962 18.3291 68.3772C18.2911 68.6937 18.2468 69.0101 18.2215 69.3266C18.1709 69.8582 18.1329 70.3962 18.1012 70.9342C18.0823 71.2 18.0569 71.4595 18.0443 71.7253C18.019 72.5038 18 73.3076 18 74.1051V99.0924C18 108.2 20.5823 115.978 25.0127 121.839C25.4557 122.428 25.9177 122.991 26.3924 123.542C27.1139 124.365 27.8671 125.143 28.6646 125.871C30.519 127.573 32.5823 129.029 34.8165 130.206L90.3544 159.485C80.1519 154.105 73.5443 142.947 73.538 128.371V103.384C73.538 102.586 73.557 101.782 73.5949 100.985C73.6076 100.719 73.6329 100.46 73.6519 100.194C73.6899 99.6557 73.7215 99.1241 73.7722 98.5861C73.8038 98.2696 73.8481 97.9532 73.8797 97.6367C73.9367 97.1557 73.9873 96.6747 74.057 96.1937C74.1076 95.8583 74.1646 95.5165 74.2215 95.181C74.2975 94.7253 74.3734 94.2633 74.4557 93.8076C74.576 93.162 74.7089 92.5165 74.8544 91.8772C74.8671 91.8139 74.8861 91.7507 74.8987 91.6874C75.0443 91.0671 75.1962 90.4468 75.3608 89.8329C75.4114 89.6557 75.4557 89.4722 75.5063 89.2949C75.6772 88.6747 75.8608 88.0481 76.057 87.4342C76.076 87.3836 76.0886 87.3266 76.1076 87.276C76.1456 87.1494 76.1962 87.0165 76.2405 86.8899C76.462 86.2127 76.6899 85.5291 76.9367 84.8582C77.038 84.5798 77.1456 84.3076 77.2532 84.0291C77.4494 83.5101 77.6519 82.9912 77.8671 82.4722C78.0063 82.1304 78.1582 81.7886 78.3038 81.4532C78.4747 81.0608 78.6456 80.6684 78.8228 80.276C78.981 79.9279 79.1456 79.5861 79.3101 79.2443C79.4937 78.8582 79.6836 78.4722 79.8798 78.0861C80.057 77.7317 80.2405 77.3836 80.4241 77.0291C80.6076 76.681 80.7911 76.3393 80.981 75.9975C81.1772 75.6431 81.3734 75.295 81.576 74.9468C81.7722 74.6114 81.9684 74.2696 82.1646 73.9342C82.3734 73.5861 82.5886 73.2443 82.8038 72.9026C83.0063 72.5734 83.2152 72.2507 83.4241 71.9215C83.6456 71.5798 83.8734 71.2443 84.1013 70.9089C84.3165 70.5861 84.5317 70.2696 84.7595 69.9532C84.9874 69.6304 85.2215 69.3076 85.4557 68.9912C85.6962 68.662 85.9367 68.3329 86.1836 68.0101C86.4241 67.6937 86.6646 67.3899 86.9114 67.0798C87.1646 66.7633 87.4177 66.4405 87.6709 66.1241C87.9051 65.8393 88.1456 65.5544 88.3861 65.2696C88.6899 64.9152 88.9874 64.5608 89.2975 64.2127C89.538 63.9405 89.7848 63.6684 90.0317 63.3962C90.3418 63.0544 90.6582 62.719 90.9747 62.3836C91.2152 62.1304 91.4557 61.8836 91.7026 61.6367C92.1203 61.2127 92.5506 60.7949 92.981 60.3836C93.1962 60.1747 93.4114 59.9658 93.6329 59.7633C94.1772 59.257 94.7279 58.7633 95.2848 58.2823C95.3988 58.1874 95.5063 58.0798 95.6203 57.9848C95.7089 57.9089 95.7975 57.8393 95.8861 57.7696C96.3481 57.3836 96.8101 57.0038 97.2848 56.6304C97.4684 56.4848 97.6519 56.3456 97.8355 56.2063C98.2279 55.9025 98.6266 55.5987 99.0253 55.3076C99.2152 55.1684 99.4051 55.0291 99.5949 54.8899C100.051 54.5608 100.519 54.238 100.981 53.9279C101.101 53.8456 101.221 53.757 101.348 53.681C101.956 53.276 102.57 52.8899 103.19 52.5101C103.323 52.4342 103.456 52.3582 103.582 52.2823C104.076 51.9912 104.57 51.7 105.07 51.4279C105.291 51.3013 105.519 51.1874 105.747 51.0671C106.158 50.8456 106.576 50.6304 106.994 50.4215C107.247 50.295 107.494 50.1747 107.747 50.0544C108.146 49.8646 108.551 49.6747 108.956 49.4912C109.215 49.3772 109.475 49.2633 109.734 49.1494C110.146 48.9722 110.557 48.8076 110.975 48.6431C111.228 48.5418 111.481 48.4405 111.734 48.3456C112.184 48.1747 112.639 48.0165 113.095 47.8646C113.317 47.7886 113.532 47.7127 113.753 47.6367C114.43 47.4152 115.108 47.2127 115.791 47.0228L119.671 45.9595C120.266 45.795 120.854 45.6494 121.437 45.5165C121.639 45.4722 121.835 45.4342 122.032 45.3899C122.418 45.3076 122.804 45.219 123.184 45.1494C123.418 45.1051 123.652 45.0734 123.886 45.0355C124.228 44.9785 124.57 44.9152 124.911 44.8646C125.158 44.8266 125.405 44.8076 125.652 44.776C125.975 44.738 126.297 44.6937 126.62 44.662C126.791 44.6431 126.956 44.6367 127.127 44.6241C127.506 44.5924 127.886 44.5608 128.259 44.5418C128.468 44.5291 128.677 44.5291 128.886 44.5165C129.215 44.5038 129.544 44.4911 129.873 44.4848C130.101 44.4848 130.323 44.4848 130.544 44.4848C130.854 44.4848 131.165 44.4848 131.468 44.5038C131.696 44.5101 131.924 44.5228 132.152 44.5355C132.468 44.5544 132.785 44.5734 133.095 44.5987C133.234 44.6114 133.373 44.6241 133.513 44.6367C133.905 44.6747 134.298 44.719 134.69 44.7696C134.779 44.7823 134.867 44.7886 134.956 44.8013C135.424 44.8646 135.886 44.9405 136.342 45.0228C136.456 45.0418 136.576 45.0671 136.69 45.0924C136.981 45.1494 137.266 45.2127 137.557 45.276C138.006 45.3772 138.456 45.4911 138.899 45.6051C139.044 45.643 139.19 45.681 139.335 45.719C139.911 45.8835 140.481 46.0608 141.044 46.257C141.184 46.3076 141.316 46.3582 141.456 46.4089C141.854 46.5544 142.253 46.7063 142.646 46.8709C142.829 46.9468 143.013 47.0291 143.196 47.1114C143.544 47.2633 143.886 47.4215 144.222 47.5861C144.519 47.7317 144.81 47.8709 145.101 48.0228L89.5633 18.7443Z" fill="white"/>
</g>
<path d="M243.192 141L225.656 51.4H237.56L249.464 111.944L261.368 51.4H273.272L285.048 111.944L296.952 51.4H308.856L291.32 141H278.904L267.256 81.608L255.608 141H243.192ZM318.464 141C315.904 141 313.685 140.104 311.808 138.312C310.016 136.52 309.12 134.301 309.12 131.656V112.328C309.12 109.768 310.016 107.592 311.808 105.8C313.685 103.923 315.904 102.984 318.464 102.984H328.448C329.813 102.984 330.923 102.557 331.776 101.704C332.715 100.765 333.184 99.656 333.184 98.376V93.64C333.184 92.36 332.715 91.2933 331.776 90.44C330.923 89.5013 329.813 89.032 328.448 89.032H314.624L317.312 77H335.872C338.432 77 340.608 77.9387 342.4 79.816C344.277 81.608 345.216 83.784 345.216 86.344V141H318.464ZM325.76 128.968H333.184V115.016H325.76C324.48 115.016 323.371 115.485 322.432 116.424C321.579 117.277 321.152 118.344 321.152 119.624V124.36C321.152 125.64 321.579 126.749 322.432 127.688C323.371 128.541 324.48 128.968 325.76 128.968ZM354.245 141V47.944L366.277 45.256V141H354.245ZM376.495 141V47.944L388.527 45.256V141H376.495ZM397.495 59.848V47.816L409.527 45V57.032L397.495 59.848ZM397.751 141V79.816L409.783 77V141H397.751ZM417.912 141V77H444.664C447.139 77 449.315 77.896 451.192 79.688C453.069 81.48 454.008 83.656 454.008 86.216V141H441.976V93.64C441.976 92.2747 441.507 91.1653 440.568 90.312C439.629 89.4587 438.563 89.032 437.368 89.032H429.944V141H417.912ZM471.464 141C468.904 141 466.685 140.104 464.808 138.312C463.016 136.435 462.12 134.216 462.12 131.656V86.216C462.12 83.656 463.016 81.48 464.808 79.688C466.685 77.896 468.904 77 471.464 77H488.872C491.517 77 493.736 77.896 495.528 79.688C497.32 81.48 498.216 83.656 498.216 86.216V105.672C498.216 108.232 497.32 110.451 495.528 112.328C493.736 114.12 491.517 115.016 488.872 115.016H474.152V124.36C474.152 125.64 474.579 126.749 475.432 127.688C476.371 128.541 477.523 128.968 478.888 128.968H495.528L498.216 141H471.464ZM474.152 102.984H481.576C482.856 102.984 483.923 102.557 484.776 101.704C485.715 100.765 486.184 99.656 486.184 98.376V93.64C486.184 92.36 485.715 91.2933 484.776 90.44C483.923 89.5013 482.856 89.032 481.576 89.032H478.888C477.523 89.032 476.371 89.5013 475.432 90.44C474.579 91.2933 474.152 92.36 474.152 93.64V102.984ZM513.964 141C511.404 141 509.185 140.104 507.308 138.312C505.516 136.435 504.62 134.216 504.62 131.656V86.216C504.62 83.656 505.516 81.48 507.308 79.688C509.185 77.896 511.404 77 513.964 77H531.372C534.017 77 536.236 77.896 538.028 79.688C539.82 81.48 540.716 83.656 540.716 86.216V105.672C540.716 108.232 539.82 110.451 538.028 112.328C536.236 114.12 534.017 115.016 531.372 115.016H516.652V124.36C516.652 125.64 517.079 126.749 517.932 127.688C518.871 128.541 520.023 128.968 521.388 128.968H538.028L540.716 141H513.964ZM516.652 102.984H524.076C525.356 102.984 526.423 102.557 527.276 101.704C528.215 100.765 528.684 99.656 528.684 98.376V93.64C528.684 92.36 528.215 91.2933 527.276 90.44C526.423 89.5013 525.356 89.032 524.076 89.032H521.388C520.023 89.032 518.871 89.5013 517.932 90.44C517.079 91.2933 516.652 92.36 516.652 93.64V102.984ZM545.87 141L557.902 109L545.87 77H557.902L563.918 93L569.934 77H581.838L569.934 109L581.838 141H569.934L563.918 125L557.902 141H545.87Z" fill="white"/>
</g>
</g>
<defs>
<clipPath id="clip0_3_7">
<rect width="640" height="180" fill="white"/>
</clipPath>
</defs>
</svg>
