<svg width="82" height="51" viewBox="0 0 82 51" fill="none" xmlns="http://www.w3.org/2000/svg">
<path fill-rule="evenodd" clip-rule="evenodd" d="M41 44.7232C36.6574 48.4707 31.0243 50.733 24.8689 50.733C11.1342 50.733 0 39.4696 0 25.5755C0 11.6813 11.1342 0.417908 24.8689 0.417908C31.0243 0.417908 36.6574 2.6802 41 6.4277C45.3426 2.6802 50.9757 0.417908 57.1311 0.417908C70.8658 0.417908 82 11.6813 82 25.5755C82 39.4696 70.8658 50.733 57.1311 50.733C50.9757 50.733 45.3426 48.4707 41 44.7232Z" fill="#ED0006"/>
<path fill-rule="evenodd" clip-rule="evenodd" d="M41 44.7232C46.3471 40.1088 49.7377 33.2427 49.7377 25.5755C49.7377 17.9082 46.3471 11.0421 41 6.4277C45.3426 2.6802 50.9757 0.417908 57.1311 0.417908C70.8658 0.417908 82 11.6813 82 25.5755C82 39.4696 70.8658 50.733 57.1311 50.733C50.9757 50.733 45.3426 48.4707 41 44.7232Z" fill="#F9A000"/>
<path fill-rule="evenodd" clip-rule="evenodd" d="M41.0001 44.7231C46.3472 40.1088 49.7377 33.2426 49.7377 25.5755C49.7377 17.9083 46.3472 11.0422 41.0001 6.4278C35.653 11.0422 32.2625 17.9083 32.2625 25.5755C32.2625 33.2426 35.653 40.1088 41.0001 44.7231Z" fill="#FF5E00"/>
</svg>
