<svg width="139" height="86" viewBox="0 0 139 86" fill="none" xmlns="http://www.w3.org/2000/svg">
<path d="M113.241 35.1378H22.7253L67.9822 7.46985L113.241 35.1378Z" fill="#3877FF" stroke="#133E5D" stroke-width="7.01367"/>
<rect x="33.8191" y="42.5645" width="7.84084" height="25.9112" rx="3.92042" fill="#133E5D"/>
<rect x="64.0624" y="42.5646" width="7.84084" height="25.9112" rx="3.92042" fill="#133E5D"/>
<rect x="94.3056" y="42.5646" width="7.84084" height="25.9112" rx="3.92042" fill="#133E5D"/>
<rect x="21.4978" y="73.9279" width="91.8498" height="7.97008" rx="3.98504" fill="#133E5D"/>
<path d="M98.226 46.2051C109.825 46.2051 119.228 36.8021 119.228 25.2029C119.228 13.6037 109.825 4.20065 98.226 4.20065C86.6268 4.20065 77.2238 13.6037 77.2238 25.2029C77.2238 36.8021 86.6268 46.2051 98.226 46.2051Z" fill="white" stroke="#133E5D" stroke-width="6.37607" stroke-linecap="round" stroke-linejoin="round"/>
<path d="M98.226 4.20065C103.479 9.95181 106.465 17.4153 106.627 25.2029C106.465 32.9905 103.479 40.454 98.226 46.2051C92.9728 40.454 89.9874 32.9905 89.8251 25.2029C89.9874 17.4153 92.9728 9.95181 98.226 4.20065Z" fill="#3877FF" stroke="#133E5D" stroke-width="6.37607" stroke-linecap="round" stroke-linejoin="round"/>
<path d="M77.2238 25.2029H119.228" stroke="#133E5D" stroke-width="6.37607" stroke-linecap="round" stroke-linejoin="round"/>
</svg>
