<svg width="56" height="70" viewBox="0 0 56 70" fill="none" xmlns="http://www.w3.org/2000/svg">
<path d="M37.9479 6.75432C38.109 6.19947 38.866 6.1263 39.1305 6.64006L53.3522 34.2865C53.4844 34.5437 53.4276 34.8578 53.2135 35.0522L23.0416 62.4321C22.8901 62.5696 22.7627 62.6042 22.6637 62.6098C22.5475 62.6164 22.4075 62.5846 22.2741 62.5014C22.1406 62.4181 22.0506 62.306 22.0055 62.1987C21.967 62.1072 21.9417 61.9773 21.9987 61.7807L37.9479 6.75432Z" fill="white" stroke="#133E5D" stroke-width="3.83444"/>
<path d="M21.2589 6.75429C21.42 6.19944 22.177 6.12627 22.4415 6.64003L36.6632 34.2865C36.7954 34.5437 36.7386 34.8578 36.5245 35.0521L6.35263 62.432C6.20108 62.5695 6.07373 62.6041 5.9747 62.6098C5.85852 62.6163 5.71849 62.5846 5.58505 62.5014C5.45156 62.418 5.36164 62.3059 5.3165 62.1986C5.27803 62.1072 5.25267 61.9773 5.30966 61.7807L21.2589 6.75429Z" fill="#3877FF" stroke="#133E5D" stroke-width="3.83444"/>
</svg>
