<svg width="94" height="31" viewBox="0 0 94 31" fill="none" xmlns="http://www.w3.org/2000/svg">
<path fill-rule="evenodd" clip-rule="evenodd" d="M24.0174 29.8681H15.9688L9.9334 6.84251C9.64693 5.78333 9.03868 4.84696 8.14396 4.40564C5.91108 3.29657 3.4506 2.41393 0.766434 1.96877V1.08228H13.732C15.5215 1.08228 16.8636 2.41393 17.0872 3.96048L20.2188 20.5696L28.2634 1.08228H36.0883L24.0174 29.8681ZM40.5619 29.8681H32.9607L39.2198 1.08228H46.821L40.5619 29.8681ZM56.6551 9.05683C56.8788 7.50645 58.2209 6.61996 59.7867 6.61996C62.2471 6.39738 64.9274 6.84254 67.1642 7.94777L68.5063 1.75006C66.2695 0.863572 63.809 0.418411 61.5761 0.418411C54.1986 0.418411 48.8302 4.40567 48.8302 9.93948C48.8302 14.1493 52.6328 16.3598 55.317 17.6914C58.2209 19.0192 59.3393 19.9057 59.1156 21.2335C59.1156 23.2252 56.8788 24.1117 54.6459 24.1117C51.9618 24.1117 49.2776 23.4478 46.821 22.3387L45.479 28.5403C48.1631 29.6455 51.067 30.0907 53.7512 30.0907C62.0235 30.3094 67.1642 26.326 67.1642 20.347C67.1642 12.8177 56.6551 12.3764 56.6551 9.05683ZM93.7664 29.8681L87.731 1.08228H81.2482C79.9061 1.08228 78.564 1.96877 78.1167 3.29657L66.9405 29.8681H74.7654L76.3272 25.6621H85.9415L86.8363 29.8681H93.7664ZM82.3666 8.8342L84.5994 19.6831H78.3403L82.3666 8.8342Z" fill="#172B85"/>
</svg>
