<svg width="232" height="135" viewBox="0 0 232 135" fill="none" xmlns="http://www.w3.org/2000/svg">
<path fill-rule="evenodd" clip-rule="evenodd" d="M229.811 0.0362396H227.601C215.968 0.0181278 206.529 9.43996 206.529 21.0723V68.118C206.529 77.5127 198.765 85.1227 189.524 85.1227C184.034 85.1227 178.553 82.3595 175.301 77.7211L127.249 9.09571C123.263 3.39731 116.777 0 109.755 0C98.8024 0 88.9457 9.31313 88.9457 20.8096V68.1271C88.9457 77.5218 81.2451 85.1317 71.9411 85.1317C66.4329 85.1317 60.961 82.3686 57.7087 77.7301L3.94086 0.942186C2.72693 -0.788163 0 0.0634143 0 2.18334V43.2136C0 45.2882 0.634155 47.2995 1.82098 49.0026L54.7281 124.567C57.8537 129.033 62.4649 132.349 67.7828 133.554C81.0911 136.58 93.3395 126.334 93.3395 113.279V65.9891C93.3395 56.5944 100.95 48.9845 110.344 48.9845H110.371C116.034 48.9845 121.343 51.7476 124.595 56.386L172.646 125.002C176.641 130.709 182.793 134.098 190.131 134.098C201.328 134.098 210.922 124.775 210.922 113.288V65.98C210.922 56.5854 218.532 48.9754 227.927 48.9754H229.802C230.98 48.9754 231.931 48.0242 231.931 46.8465V2.15616C231.931 0.978427 230.98 0.0271759 229.802 0.0271759L229.811 0.0362396Z" fill="#0B100F"/>
</svg>
